<svg width="26" height="27" viewBox="0 0 26 27" fill="none" xmlns="http://www.w3.org/2000/svg">
<path d="M13 25.5C19.6274 25.5 25 20.1274 25 13.5C25 6.87258 19.6274 1.5 13 1.5M13 25.5C6.37258 25.5 1 20.1274 1 13.5C1 6.87258 6.37258 1.5 13 1.5M13 25.5C16.6819 25.5 18.2551 18.616 18.2551 13.5C18.2551 8.38405 16.6819 1.5 13 1.5M13 25.5C9.3181 25.5 7.74526 18.6159 7.74526 13.5C7.74526 8.3841 9.3181 1.5 13 1.5M1.6665 9.49997C10.5184 9.49997 15.4813 9.49997 24.3332 9.49997M1.6665 17.5C10.5184 17.5 15.4813 17.5 24.3332 17.5" stroke="#2FCCE1" stroke-width="1.5" stroke-linecap="round" stroke-linejoin="round"/>
</svg>
