<svg width="1920" height="5682" viewBox="0 0 1920 5682" fill="none" xmlns="http://www.w3.org/2000/svg" id="test">
<g>
<path d="M2193.49 -2621.99C2110.81 -2578 1874.89 -2414.21 1592.66 -2110.95C1239.87 -1731.87 1039.74 -1560.86 616.896 -1048.66C297.586 -661.872 -88.2562 -218.006 -159.568 -99.5547M-159.568 -99.5547C-182.69 -61.1479 -172.746 -56.9523 -116.744 -100.007C111.974 -275.847 41.4856 -144.729 585.066 -829.797C709.105 -986.121 802.412 -1108.49 875.711 -1207.04M-159.568 -99.5547C-465.101 271.924 -809.704 716.671 -806.317 732.384C-801.56 754.456 -718.099 683.533 -556.843 652.856C-529.714 647.696 -506.912 641.911 -486.14 634.162M-159.568 -99.5547C-35.9502 -249.855 81.2722 -388.161 166.463 -481.204C462.21 -804.213 610.503 -986.682 752.033 -1108.89C801.928 -1151.98 840.996 -1182.66 875.711 -1207.04M875.711 -1207.04C1123.63 -1540.37 1142.66 -1601.15 1347.72 -1781.27C1613.41 -2014.64 1595.03 -1870.83 1833.44 -2093.36C2071.84 -2315.89 2256.84 -2557.13 2360.5 -2580.17C2398.77 -2588.67 2447.35 -2611.77 2474.45 -2614.85M875.711 -1207.04C939.466 -1251.81 988.54 -1275.31 1063.04 -1315.26C1178.12 -1376.96 1167.13 -1336.29 1331.89 -1488.16C1496.65 -1640.04 1472.95 -1566.73 1765.37 -1859.37C2057.79 -2152.01 2066.44 -2111.88 2378.23 -2497.9C2410.92 -2538.38 2443.07 -2577.35 2474.45 -2614.85M2474.45 -2614.85C2520.75 -2620.13 2504.33 -2567 2266.57 -2282.9C1889.65 -1832.51 1858.61 -1793.31 1644.46 -1595.67C1430.31 -1398.03 1238.14 -1281.73 1091.58 -1182.83C945.03 -1083.93 923.667 -1091.41 672.678 -789.822C421.688 -488.228 70.6317 -101.127 -75.6638 90.6101C-162.7 204.681 -359.786 456.801 -486.14 634.162M2474.45 -2614.85C2742.35 -2935 2954.32 -3147.79 2971.93 -3271.14C2991.61 -3408.93 3145 -3659.4 2843.19 -3364.48C2541.39 -3069.56 2379.49 -2812.8 2127.68 -2652.48C1875.87 -2492.15 1766.85 -2402.36 1666.35 -2318.85C1565.85 -2235.35 1621.16 -2299.45 1498.3 -2273.86M-486.14 634.162C-572.17 754.921 -625.411 841.023 -588.801 825.299C-498.421 786.481 -615.7 975.401 -353.9 723.97C-92.0994 472.539 -203.886 641.124 84.51 284.005C372.906 -73.115 175.411 -27.3112 673.713 -418.466C1172.02 -809.62 1121.89 -721.449 1370.42 -988.662C1618.94 -1255.87 1584.56 -1186.3 1840.61 -1510.24C2096.66 -1834.17 2215.54 -2061.49 2362.53 -2158.38C2509.52 -2255.27 2633.58 -2458.51 2615.33 -2268.27C2606.61 -2177.34 2658.88 -2211.69 2678.51 -2215.3M-486.14 634.162C-383.437 595.847 -330.349 509.502 -49.2859 213.006C288.624 -143.458 177.011 -65.7053 719.812 -571.114C1262.61 -1076.52 892.659 -731.288 1137.42 -970.139C1382.18 -1208.99 1400.65 -1169.13 1676.46 -1447.19C1952.27 -1725.24 1952.14 -1771.66 2200.23 -2040.88C2448.33 -2310.1 2424.93 -2281.2 2747.53 -2617.06C3070.13 -2952.92 2887.12 -2610.81 2792.5 -2408.38C2761.12 -2341.24 2725.82 -2282.21 2678.51 -2215.3M2678.51 -2215.3C2699.94 -2219.24 2682.44 -2186.53 2504.06 -1914.01C2162.35 -1391.93 2196.99 -1368.67 1929.26 -1098.91C1661.54 -829.147 1551.78 -696.949 1397.57 -587.749C1243.37 -478.548 1226.63 -510.382 994.711 -257.755C762.792 -5.12775 939.099 -149.249 552.236 254.985C165.373 659.219 228.769 586.83 54.4956 694.564C-119.778 802.299 -105.161 686.848 -308.927 932.645C-512.694 1178.44 -580.803 1091.51 -665.779 1384.5C-681.343 1438.16 -694.323 1483.83 -704.808 1522.78M2678.51 -2215.3C2583.18 -2080.48 2439.11 -1913.69 2180.17 -1584.17C1792.7 -1091.11 1745.21 -1128.15 1533.66 -918.474C1322.11 -708.794 1343.09 -840.567 1087.21 -607.465C831.337 -374.362 720.415 -201.764 438.246 92.6135C156.078 386.991 224.966 294.268 7.79395 477.863C-209.378 661.459 -187.28 626.538 -546.424 1021.94C-905.567 1417.33 -789.197 1361.65 -768.441 1457.96C-757.418 1509.11 -741.171 1528.02 -704.808 1522.78M-704.808 1522.78C-751.569 1696.52 -748.694 1736.73 -704.01 1756.93C-649.307 1781.67 -712.012 1948.9 -417.561 1619.87C-123.111 1290.84 26.0815 1066.73 214.669 887.959C403.257 709.187 322.823 794.155 611.045 527.868C899.268 261.581 955.139 245.914 1159.34 2.12402C1363.54 -241.666 1657.56 -572.701 1533.83 -551.131C1410.11 -529.56 1402.76 -563.671 1210.84 -354.531C1018.93 -145.391 1143.99 -298.194 786.143 103.223C428.297 504.64 362.004 609.402 188.724 767.569C15.4449 925.736 30.3208 903.125 -183.392 1102.77C-397.105 1302.42 -393.961 1379.82 -551.184 1458.04C-624.91 1494.72 -672.701 1518.16 -704.808 1522.78ZM1707.02 -500.16C1602.68 -427.018 1303.02 -177.433 939.105 235.776C484.213 752.286 228.385 998.267 -319.77 1679.14C-733.708 2193.29 -1232.71 2789.47 -1326.78 2938.55M-1326.78 2938.55C-1357.28 2986.89 -1345.21 2988.23 -1273.86 2924.52C-982.491 2664.35 -1076.18 2826.7 -370.163 1922.99C-209.058 1716.77 -87.6252 1556.54 7.89062 1428.09M-1326.78 2938.55C-1722.92 3432 -2171.04 4016.07 -2167.65 4031.78C-2162.89 4053.86 -2056.23 3951.7 -1855.52 3867.92C-1821.75 3853.83 -1793.3 3840.44 -1767.25 3825.59M-1326.78 2938.55C-1166.49 2738.9 -1014.72 2554.09 -904.796 2427.76C-523.187 1989.18 -330.803 1747.36 -149.823 1572.05C-86.0198 1510.24 -36.2172 1465.11 7.89062 1428.09M7.89062 1428.09C330.959 993.614 357.532 922.677 619.91 665.413C959.861 332.087 929.879 491.517 1235.58 178.405C1541.28 -134.707 1781.98 -450.914 1911.16 -508.31C1958.85 -529.5 2020.02 -569.538 2053.65 -581.408M7.89062 1428.09C88.8959 1360.1 150.693 1319.48 244.729 1253.24C389.969 1150.93 374.344 1197.85 585.516 983.503C796.688 769.156 763.708 854.964 1139.67 449.876C1515.62 44.7877 1524.27 84.9185 1928.89 -426.043C1971.31 -479.621 2012.99 -531.423 2053.65 -581.408M2053.65 -581.408C2111.1 -601.69 2088.13 -539.742 1780.1 -161.063C1291.8 439.249 1251.46 490.947 976.984 769.8C702.503 1048.65 459.274 1233.67 273.27 1385.67C87.2654 1537.67 61.2616 1536.43 -263.987 1937.97C-589.235 2339.52 -1042.4 2864.06 -1232.78 3115.14C-1346.05 3264.52 -1602.22 3596.17 -1767.25 3825.59M2053.65 -581.408C2400.71 -1008.12 2673.27 -1302.47 2701.27 -1439.79C2732.55 -1593.2 2934.67 -1909.26 2547.01 -1498.77C2159.35 -1088.29 1946.39 -762.813 1627.28 -511.903C1308.17 -260.992 1168.99 -130.595 1040.64 -9.61108C912.295 111.373 983.848 25.4158 830.825 91.605M-1767.25 3825.59C-1879.62 3981.79 -1949.73 4090.61 -1903.72 4062.23C-1790.14 3992.17 -1944.54 4231.07 -1608.49 3879.69C-1272.43 3528.3 -1419.02 3743.74 -1044.76 3271.05C-670.506 2798.36 -916.734 2909.76 -281.517 2334.32C353.7 1758.88 287.336 1868.91 607.799 1504.87C928.261 1140.83 882.279 1226.02 1214.91 799.006C1547.54 371.995 1705.87 91.5814 1892.3 -58.4099C2078.74 -208.401 2242.26 -464.737 2210.08 -255.764C2194.7 -155.875 2261 -209.093 2285.42 -219.157M-1767.25 3825.59C-1638.47 3752.17 -1568.54 3643.15 -1206.41 3237.54C-771.032 2749.88 -912.812 2868.24 -216.853 2156.68C479.107 1445.12 4.72665 1930.91 319.106 1598.36C633.486 1265.8 654.272 1302.54 1008.98 918.28C1363.69 534.025 1365.89 484.482 1685.92 118.434C2005.95 -247.615 1975.59 -209.343 2391.02 -670.142C2806.44 -1130.94 2563.09 -707.621 2435.99 -461.467C2393.83 -379.82 2347.24 -305.594 2285.42 -219.157M2285.42 -219.157C2312.09 -230.149 2288.82 -189.678 2054.72 157.846C1606.26 823.604 1647.86 837.502 1303.55 1210.34C959.25 1583.17 817.008 1759.1 621.029 1924.52C425.05 2089.95 405.994 2061.24 106.778 2404.45C-192.438 2747.66 32.6016 2537.94 -465.65 3092.1C-963.901 3646.27 -881.94 3548.89 -1102.63 3719.09C-1323.31 3889.3 -1299.41 3761.35 -1563.51 4088.36C-1827.62 4415.37 -1907.33 4344.05 -2027.11 4683.89C-2049.05 4746.14 -2067.39 4799.03 -2082.32 4843.95M2285.42 -219.157C2160.86 -44.9984 1974.49 178.734 1638 612.625C1134.5 1261.86 1077.74 1237.31 805.853 1528.2C533.966 1819.1 566.544 1671.71 238.73 2001.64C-89.084 2331.57 -234.815 2551.02 -598.204 2954.72C-961.593 3358.42 -871.82 3237.59 -1149.33 3502.39C-1426.83 3767.2 -1397.77 3722.91 -1861.34 4258.87C-2324.91 4794.82 -2178.38 4698.53 -2157.62 4794.85C-2146.6 4845.99 -2127.49 4861.05 -2082.32 4843.95M-2082.32 4843.95C-2148.87 5044.33 -2147.35 5086.37 -2093.19 5093.81C-2026.88 5102.93 -2112.79 5301.4 -1732.48 4856.8C-1352.17 4412.2 -1156.57 4125.62 -914.604 3875.01C-672.643 3624.39 -776.283 3740.6 -406.84 3364.99C-37.3972 2989.38 32.3979 2954.97 296.933 2629.97C561.467 2304.96 941.347 1858.36 787.458 1920.54C633.57 1982.71 626.218 1948.6 378.606 2232.71C130.994 2516.81 293.186 2314.03 -169.086 2856.01C-631.359 3397.98 -718.538 3530.86 -940.55 3754.62C-1162.56 3978.38 -1143.04 3949.52 -1417.09 4230.38C-1691.14 4511.24 -1691.18 4592.92 -1889.31 4726.2C-1982.22 4788.7 -2042.43 4828.86 -2082.32 4843.95ZM1761.72 1353.38C1679.04 1397.37 1443.11 1561.16 1160.89 1864.42C808.099 2243.49 607.966 2414.51 185.123 2926.71C-134.186 3313.5 -520.028 3757.36 -591.34 3875.81M-591.34 3875.81C-614.463 3914.22 -604.518 3918.42 -548.516 3875.36C-319.798 3699.52 -390.287 3830.64 153.294 3145.57C277.333 2989.25 370.64 2866.88 443.939 2768.33M-591.34 3875.81C-896.873 4247.29 -1241.48 4692.04 -1238.09 4707.75C-1233.33 4729.82 -1149.87 4658.9 -988.615 4628.23C-961.486 4623.06 -938.684 4617.28 -917.912 4609.53M-591.34 3875.81C-467.722 3725.51 -350.5 3587.21 -265.309 3494.17C30.438 3171.16 178.731 2988.69 320.261 2866.48C370.156 2823.39 409.224 2792.7 443.939 2768.33M443.939 2768.33C691.862 2435 710.886 2374.22 915.95 2194.1C1181.64 1960.73 1163.26 2104.54 1401.67 1882.01C1640.07 1659.48 1825.07 1418.24 1928.73 1395.2C1967 1386.7 2015.58 1363.6 2042.68 1360.51M443.939 2768.33C507.694 2723.56 556.768 2700.06 631.272 2660.11C746.345 2598.41 735.36 2639.08 900.121 2487.21C1064.88 2335.33 1041.18 2408.64 1333.6 2116C1626.02 1823.36 1634.67 1863.49 1946.46 1477.47C1979.15 1436.99 2011.3 1398.02 2042.68 1360.51M2042.68 1360.51C2088.98 1355.24 2072.56 1408.37 1834.8 1692.47C1457.88 2142.86 1426.83 2182.06 1212.69 2379.7C998.543 2577.34 806.366 2693.64 659.812 2792.54C513.258 2891.44 491.895 2883.95 240.906 3185.55C-10.0837 3487.14 -361.14 3874.24 -507.436 4065.98C-594.472 4180.05 -791.558 4432.17 -917.912 4609.53M2042.68 1360.51C2310.58 1040.37 2522.54 827.575 2540.16 704.231C2559.83 566.439 2713.22 315.973 2411.42 610.891C2109.62 905.809 1947.71 1162.56 1695.9 1322.89C1444.09 1483.22 1335.07 1573.01 1234.57 1656.51C1134.08 1740.02 1189.39 1675.92 1066.53 1701.51M-917.912 4609.53C-1003.94 4730.29 -1057.18 4816.39 -1020.57 4800.67C-930.193 4761.85 -1047.47 4950.77 -785.672 4699.34C-523.872 4447.91 -635.658 4616.49 -347.262 4259.37C-58.8659 3902.25 -256.361 3948.06 241.941 3556.9C740.243 3165.75 690.123 3253.92 938.647 2986.71C1187.17 2719.49 1152.79 2789.07 1408.84 2465.13C1664.89 2141.2 1783.77 1913.88 1930.76 1816.99C2077.74 1720.1 2201.81 1516.86 2183.56 1707.1C2174.84 1798.03 2227.11 1763.68 2246.73 1760.07M-917.912 4609.53C-815.209 4571.22 -762.121 4484.87 -481.058 4188.38C-143.148 3831.91 -254.761 3909.66 288.04 3404.25C830.841 2898.85 460.887 3244.08 705.649 3005.23C950.411 2766.38 968.876 2806.24 1244.69 2528.18C1520.5 2250.13 1520.37 2203.71 1768.46 1934.49C2016.55 1665.27 1993.16 1694.17 2315.76 1358.31C2638.36 1022.45 2455.35 1364.56 2360.73 1566.99C2329.35 1634.13 2294.04 1693.16 2246.73 1760.07M2246.73 1760.07C2268.17 1756.13 2250.67 1788.84 2072.29 2061.36C1730.58 2583.44 1765.21 2606.7 1497.49 2876.46C1229.76 3146.22 1120.01 3278.42 965.801 3387.62C811.593 3496.82 794.858 3464.99 562.939 3717.61C331.02 3970.24 507.327 3826.12 120.464 4230.35C-266.399 4634.59 -203.003 4562.2 -377.276 4669.93C-551.55 4777.67 -536.933 4662.22 -740.7 4908.01C-944.467 5153.81 -1012.58 5066.88 -1097.55 5359.86C-1113.12 5413.53 -1126.1 5459.19 -1136.58 5498.15M2246.73 1760.07C2151.41 1894.89 2007.34 2061.68 1748.39 2391.2C1360.92 2884.26 1313.44 2847.21 1101.89 3056.9C890.341 3266.58 911.316 3134.8 655.44 3367.9C399.564 3601.01 288.642 3773.61 6.47412 4067.98C-275.694 4362.36 -206.806 4269.64 -423.978 4453.23C-641.15 4636.83 -619.052 4601.91 -978.196 4997.3C-1337.34 5392.7 -1220.97 5337.02 -1200.21 5433.33C-1189.19 5484.48 -1172.94 5503.38 -1136.58 5498.15M-1136.58 5498.15C-1183.34 5671.89 -1180.47 5712.1 -1135.78 5732.3C-1081.08 5757.03 -1143.78 5924.27 -849.333 5595.24C-554.883 5266.21 -405.691 5042.1 -217.103 4863.33C-28.5148 4684.56 -108.949 4769.52 179.273 4503.24C467.496 4236.95 523.367 4221.28 727.566 3977.49C931.766 3733.7 1225.78 3402.67 1102.06 3424.24C978.342 3445.81 970.99 3411.7 779.073 3620.84C587.155 3829.98 712.217 3677.17 354.371 4078.59C-3.47482 4480.01 -69.7686 4584.77 -243.048 4742.94C-416.327 4901.11 -401.451 4878.49 -615.164 5078.14C-828.877 5277.79 -825.733 5355.19 -982.956 5433.41C-1056.68 5470.09 -1104.47 5493.53 -1136.58 5498.15ZM2786.51 2102.81C2703.82 2146.8 2467.9 2310.59 2185.67 2613.85C1832.89 2992.93 1632.75 3163.95 1209.91 3676.15C890.6 4062.93 504.758 4506.8 433.446 4625.25M433.446 4625.25C410.324 4663.66 420.268 4667.85 476.27 4624.8C704.989 4448.96 634.5 4580.08 1178.08 3895.01C1302.12 3738.68 1395.43 3616.31 1468.72 3517.76M433.446 4625.25C127.913 4996.73 -216.689 5441.48 -213.303 5457.19C-208.546 5479.26 -125.085 5408.34 36.1716 5377.66C63.3 5372.5 86.102 5366.72 106.874 5358.97M433.446 4625.25C557.064 4474.95 674.286 4336.64 759.477 4243.6C1055.22 3920.59 1203.52 3738.12 1345.05 3615.91C1394.94 3572.83 1434.01 3542.14 1468.72 3517.76M1468.72 3517.76C1716.65 3184.44 1735.67 3123.66 1940.74 2943.54C2206.43 2710.17 2188.05 2853.98 2426.45 2631.45C2664.86 2408.92 2849.86 2167.68 2953.51 2144.64C2991.78 2136.13 3040.37 2113.04 3067.47 2109.95M1468.72 3517.76C1532.48 3472.99 1581.55 3449.5 1656.06 3409.55C1771.13 3347.85 1760.15 3388.52 1924.91 3236.64C2089.67 3084.76 2065.97 3158.08 2358.39 2865.44C2650.8 2572.8 2659.45 2612.93 2971.24 2226.91C3003.94 2186.43 3036.09 2147.45 3067.47 2109.95M3067.47 2109.95C3113.77 2104.67 3097.35 2157.81 2859.59 2441.91C2482.67 2892.29 2451.62 2931.5 2237.47 3129.14C2023.33 3326.78 1831.15 3443.08 1684.6 3541.98C1538.04 3640.88 1516.68 3633.39 1265.69 3934.98C1014.7 4236.58 663.646 4623.68 517.35 4815.42C430.315 4929.49 233.228 5181.61 106.874 5358.97M3067.47 2109.95C3335.36 1789.8 3547.33 1577.01 3564.94 1453.67C3584.62 1315.87 3738.01 1065.41 3436.21 1360.33C3134.41 1655.25 2972.5 1912 2720.69 2072.33C2468.88 2232.66 2359.86 2322.45 2259.36 2405.95C2158.86 2489.45 2214.17 2425.36 2091.32 2450.94M106.874 5358.97C20.8438 5479.73 -32.3969 5565.83 4.21313 5550.1C94.5931 5511.29 -22.6858 5700.21 239.115 5448.78C500.915 5197.34 389.128 5365.93 677.524 5008.81C965.92 4651.69 768.425 4697.49 1266.73 4306.34C1765.03 3915.19 1714.91 4003.36 1963.43 3736.14C2211.96 3468.93 2177.58 3538.5 2433.63 3214.57C2689.68 2890.63 2808.56 2663.32 2955.54 2566.43C3102.53 2469.54 3226.6 2266.3 3208.35 2456.53C3199.62 2547.46 3251.89 2513.12 3271.52 2509.51M106.874 5358.97C209.577 5320.65 262.665 5234.31 543.728 4937.81C881.639 4581.35 770.026 4659.1 1312.83 4153.69C1855.63 3648.28 1485.67 3993.52 1730.44 3754.67C1975.2 3515.81 1993.66 3555.67 2269.47 3277.62C2545.29 2999.56 2545.16 2953.14 2793.25 2683.92C3041.34 2414.71 3017.94 2443.61 3340.55 2107.75C3663.15 1771.89 3480.14 2114 3385.52 2316.42C3354.13 2383.57 3318.83 2442.6 3271.52 2509.51M3271.52 2509.51C3292.95 2505.57 3275.45 2538.27 3097.08 2810.79C2755.36 3332.87 2790 3356.14 2522.27 3625.9C2254.55 3895.66 2144.8 4027.86 1990.59 4137.06C1836.38 4246.26 1819.64 4214.42 1587.73 4467.05C1355.81 4719.68 1532.11 4575.56 1145.25 4979.79C758.387 5384.02 821.783 5311.64 647.51 5419.37C473.236 5527.1 487.854 5411.65 284.087 5657.45C80.3197 5903.25 12.2109 5816.31 -72.7654 6109.3C-88.3292 6162.96 -101.309 6208.63 -111.794 6247.59M3271.52 2509.51C3176.19 2644.32 3032.13 2811.12 2773.18 3140.63C2385.71 3633.69 2338.23 3596.65 2126.68 3806.33C1915.13 4016.01 1936.1 3884.24 1680.23 4117.34C1424.35 4350.44 1313.43 4523.04 1031.26 4817.42C749.092 5111.8 817.98 5019.07 600.808 5202.67C383.636 5386.26 405.734 5351.34 46.5906 5746.74C-312.553 6142.14 -196.183 6086.46 -175.427 6182.77C-164.404 6233.92 -148.157 6252.82 -111.794 6247.59M-111.794 6247.59C-158.554 6421.32 -155.68 6461.53 -110.996 6481.74C-56.2924 6506.47 -118.997 6673.7 175.453 6344.68C469.903 6015.65 619.096 5791.54 807.684 5612.76C996.272 5433.99 915.837 5518.96 1204.06 5252.67C1492.28 4986.39 1548.15 4970.72 1752.35 4726.93C1956.55 4483.14 2250.57 4152.1 2126.85 4173.67C2003.13 4195.24 1995.78 4161.13 1803.86 4370.27C1611.94 4579.41 1737 4426.61 1379.16 4828.03C1021.31 5229.45 955.018 5334.21 781.738 5492.38C608.459 5650.54 623.335 5627.93 409.622 5827.58C195.909 6027.23 199.053 6104.63 41.8303 6182.85C-31.8956 6219.52 -79.6864 6242.97 -111.794 6247.59ZM2300.04 4224.65C2195.69 4297.79 1896.03 4547.37 1532.12 4960.58C1077.23 5477.09 821.399 5723.07 273.245 6403.94C-140.694 6918.1 -639.692 7514.27 -733.762 7663.36M-733.762 7663.36C-764.263 7711.7 -752.194 7713.03 -680.851 7649.33C-389.477 7389.15 -483.171 7551.51 222.851 6647.79C383.956 6441.58 505.389 6281.35 600.905 6152.89M-733.762 7663.36C-1129.91 8156.81 -1578.02 8740.88 -1574.64 8756.59C-1569.88 8778.66 -1463.21 8676.5 -1262.51 8592.73C-1228.74 8578.63 -1200.29 8565.24 -1174.24 8550.39M-733.762 7663.36C-573.48 7463.71 -421.706 7278.89 -311.782 7152.56C69.8271 6713.98 262.211 6472.17 443.191 6296.85C506.994 6235.05 556.797 6189.91 600.905 6152.89M600.905 6152.89C923.974 5718.42 950.546 5647.48 1212.92 5390.22C1552.88 5056.89 1522.89 5216.32 1828.59 4903.21C2134.3 4590.1 2374.99 4273.89 2504.17 4216.5C2551.87 4195.3 2613.04 4155.27 2646.66 4143.4M600.905 6152.89C681.91 6084.9 743.707 6044.28 837.744 5978.04C982.984 5875.74 967.358 5922.66 1178.53 5708.31C1389.7 5493.96 1356.72 5579.77 1732.68 5174.68C2108.64 4769.59 2117.29 4809.72 2521.9 4298.76C2564.33 4245.18 2606.01 4193.38 2646.66 4143.4M2646.66 4143.4C2704.11 4123.12 2681.14 4185.06 2373.12 4563.74C1884.81 5164.05 1844.48 5215.75 1570 5494.61C1295.52 5773.46 1052.29 5958.48 866.284 6110.47C680.28 6262.47 654.276 6261.23 329.027 6662.78C3.77878 7064.32 -449.384 7588.86 -639.77 7839.95C-753.037 7989.32 -1009.21 8320.97 -1174.24 8550.39M2646.66 4143.4C2993.73 3716.68 3266.29 3422.34 3294.29 3285.01C3325.57 3131.6 3527.69 2815.54 3140.03 3226.03C2752.36 3636.52 2539.4 3961.99 2220.3 4212.9C1901.19 4463.81 1762 4594.21 1633.66 4715.19C1505.31 4836.18 1576.86 4750.22 1423.84 4816.41M-1174.24 8550.39C-1286.6 8706.6 -1356.72 8815.41 -1310.71 8787.03C-1197.12 8716.98 -1351.53 8955.88 -1015.47 8604.49C-679.412 8253.11 -826.007 8468.55 -451.75 7995.86C-77.4916 7523.17 -323.719 7634.56 311.498 7059.12C946.715 6483.68 880.35 6593.72 1200.81 6229.67C1521.28 5865.63 1475.29 5950.82 1807.92 5523.81C2140.55 5096.8 2298.88 4816.39 2485.32 4666.4C2671.75 4516.4 2835.27 4260.07 2803.1 4469.04C2787.72 4568.93 2854.01 4515.71 2878.43 4505.65M-1174.24 8550.39C-1045.46 8476.98 -975.524 8367.95 -613.393 7962.34C-178.018 7474.69 -319.798 7593.05 376.161 6881.49C1072.12 6169.93 597.741 6655.72 912.121 6323.16C1226.5 5990.6 1247.29 6027.34 1602 5643.09C1956.71 5258.83 1958.9 5209.29 2278.93 4843.24C2598.96 4477.19 2568.6 4515.46 2984.03 4054.66C3399.45 3593.86 3156.11 4017.18 3029 4263.34C2986.84 4344.99 2940.25 4419.21 2878.43 4505.65M2878.43 4505.65C2905.1 4494.66 2881.83 4535.13 2647.74 4882.65C2199.27 5548.41 2240.87 5562.31 1896.57 5935.14C1552.26 6307.98 1410.02 6483.91 1214.04 6649.33C1018.06 6814.75 999.009 6786.04 699.792 7129.25C400.576 7472.46 625.616 7262.75 127.365 7816.91C-370.886 8371.07 -288.926 8273.69 -509.611 8443.9C-730.296 8614.1 -706.397 8486.16 -970.499 8813.17C-1234.6 9140.18 -1314.31 9068.86 -1434.1 9408.7C-1456.04 9470.94 -1474.38 9523.83 -1489.3 9568.76M2878.43 4505.65C2753.88 4679.81 2567.51 4903.54 2231.01 5337.43C1727.52 5986.67 1670.75 5962.12 1398.87 6253.01C1126.98 6543.9 1159.56 6396.51 831.744 6726.44C503.93 7056.37 358.199 7275.82 -5.1897 7679.53C-368.579 8083.23 -278.806 7962.39 -556.313 8227.2C-833.82 8492.01 -804.76 8447.71 -1268.33 8983.67C-1731.9 9519.63 -1585.36 9423.34 -1564.61 9519.65C-1553.58 9570.8 -1534.48 9585.85 -1489.3 9568.76M-1489.3 9568.76C-1555.85 9769.13 -1554.34 9811.17 -1500.18 9818.62C-1433.87 9827.73 -1519.78 10026.2 -1139.47 9581.61C-759.156 9137.01 -563.552 8850.43 -321.59 8599.81C-79.6286 8349.2 -183.269 8465.4 186.174 8089.79C555.617 7714.18 625.412 7679.77 889.947 7354.77C1154.48 7029.77 1534.36 6583.16 1380.47 6645.34C1226.58 6707.52 1219.23 6673.41 971.621 6957.51C724.009 7241.61 886.2 7038.84 423.928 7580.81C-38.3445 8122.79 -125.524 8255.66 -347.536 8479.42C-569.547 8703.18 -550.03 8674.32 -824.078 8955.18C-1098.13 9236.04 -1098.16 9317.73 -1296.3 9451.01C-1389.21 9513.51 -1449.42 9553.67 -1489.3 9568.76ZM2354.73 6078.18C2272.05 6122.17 2036.13 6285.96 1753.9 6589.22C1401.11 6968.3 1200.98 7139.32 778.137 7651.51C458.828 8038.3 72.9859 8482.17 1.67383 8600.62M1.67383 8600.62C-21.4484 8639.03 -11.5035 8643.22 44.4983 8600.17C273.217 8424.33 202.728 8555.44 746.308 7870.38C870.347 7714.05 963.654 7591.68 1036.95 7493.13M1.67383 8600.62C-303.859 8972.1 -648.461 9416.84 -645.075 9432.56C-640.318 9454.63 -556.857 9383.71 -395.6 9353.03C-368.472 9347.87 -345.67 9342.09 -324.898 9334.34M1.67383 8600.62C125.292 8450.32 242.514 8312.01 327.705 8218.97C623.452 7895.96 771.745 7713.49 913.275 7591.28C963.17 7548.2 1002.24 7517.51 1036.95 7493.13M1036.95 7493.13C1284.88 7159.8 1303.9 7099.03 1508.96 6918.91C1774.66 6685.54 1756.28 6829.35 1994.68 6606.82C2233.09 6384.29 2418.09 6143.04 2521.74 6120.01C2560.01 6111.5 2608.6 6088.41 2635.69 6085.32M1036.95 7493.13C1100.71 7448.36 1149.78 7424.87 1224.29 7384.92C1339.36 7323.22 1328.37 7363.89 1493.13 7212.01C1657.89 7060.13 1634.2 7133.45 1926.61 6840.81C2219.03 6548.17 2227.68 6588.3 2539.47 6202.27C2572.16 6161.8 2604.31 6122.82 2635.69 6085.32M2635.69 6085.32C2682 6080.04 2665.57 6133.17 2427.81 6417.28C2050.9 6867.66 2019.85 6906.87 1805.7 7104.51C1591.56 7302.15 1399.38 7418.45 1252.83 7517.35C1106.27 7616.24 1084.91 7608.76 833.92 7910.35C582.93 8211.95 231.874 8599.05 85.5781 8790.78C-1.45771 8904.85 -198.544 9156.98 -324.898 9334.34M2635.69 6085.32C2903.59 5765.17 3115.56 5552.38 3133.17 5429.04C3152.85 5291.24 3306.24 5040.78 3004.44 5335.7C2702.63 5630.61 2540.73 5887.37 2288.92 6047.7C2037.11 6208.03 1928.09 6297.82 1827.59 6381.32C1727.09 6464.82 1782.4 6400.73 1659.54 6426.31M-324.898 9334.34C-410.928 9455.1 -464.169 9541.2 -427.559 9525.47C-337.179 9486.66 -454.458 9675.58 -192.658 9424.14C69.1424 9172.71 -42.6442 9341.3 245.752 8984.18C534.148 8627.06 336.653 8672.86 834.955 8281.71C1333.26 7890.55 1283.14 7978.73 1531.66 7711.51C1780.19 7444.3 1745.81 7513.87 2001.86 7189.94C2257.9 6866 2376.78 6638.69 2523.77 6541.8C2670.76 6444.91 2794.83 6241.67 2776.58 6431.9C2767.85 6522.83 2820.12 6488.49 2839.75 6484.88M-324.898 9334.34C-222.195 9296.02 -169.107 9209.68 111.956 8913.18C449.867 8556.72 338.253 8634.47 881.054 8129.06C1423.85 7623.65 1053.9 7968.89 1298.66 7730.04C1543.43 7491.18 1561.89 7531.04 1837.7 7252.99C2113.51 6974.93 2113.38 6928.51 2361.48 6659.29C2609.57 6390.07 2586.17 6418.97 2908.77 6083.12C3231.38 5747.26 3048.37 6089.37 2953.75 6291.79C2922.36 6358.93 2887.06 6417.97 2839.75 6484.88M2839.75 6484.88C2861.18 6480.93 2843.68 6513.64 2665.31 6786.16C2323.59 7308.24 2358.23 7331.51 2090.5 7601.27C1822.78 7871.03 1713.02 8003.23 1558.82 8112.43C1404.61 8221.63 1387.87 8189.79 1155.95 8442.42C924.034 8695.05 1100.34 8550.93 713.478 8955.16C326.615 9359.39 390.011 9287 215.738 9394.74C41.464 9502.47 56.0814 9387.02 -147.686 9632.82C-351.453 9878.62 -419.561 9791.68 -504.537 10084.7C-520.101 10138.3 -533.081 10184 -543.566 10223M2839.75 6484.88C2744.42 6619.69 2600.36 6786.49 2341.41 7116C1953.94 7609.06 1906.46 7572.02 1694.91 7781.7C1483.36 7991.38 1504.33 7859.61 1248.45 8092.71C992.579 8325.81 881.657 8498.41 599.488 8792.79C317.32 9087.17 386.208 8994.44 169.036 9178.04C-48.1362 9361.63 -26.038 9326.71 -385.181 9722.11C-744.325 10117.5 -627.955 10061.8 -607.199 10158.1C-596.176 10209.3 -579.929 10228.2 -543.566 10223M-543.566 10223C-590.327 10396.7 -587.452 10436.9 -542.768 10457.1C-488.065 10481.8 -550.769 10649.1 -256.319 10320C38.1307 9991.02 187.323 9766.91 375.911 9588.13C564.499 9409.36 484.065 9494.33 772.288 9228.04C1060.51 8961.76 1116.38 8946.09 1320.58 8702.3C1524.78 8458.51 1818.8 8127.47 1695.08 8149.04C1571.36 8170.61 1564 8136.5 1372.09 8345.64C1180.17 8554.78 1305.23 8401.98 947.385 8803.4C589.539 9204.81 523.246 9309.58 349.966 9467.74C176.687 9625.91 191.563 9603.3 -22.1499 9802.95C-235.863 10002.6 -232.719 10080 -389.942 10158.2C-463.668 10194.9 -511.458 10218.3 -543.566 10223Z" stroke="url(#paint0_linear_61_52)" stroke-width="6"/>
</g>
<defs>
<linearGradient id="paint0_linear_61_52" x1="-1322.52" y1="-85.5994" x2="2959.99" y2="5958.4" gradientUnits="userSpaceOnUse">
<stop offset="0.143904" stop-color="#6E1975"/>
<stop offset="0.262743" stop-color="#F68CFF"/>
<stop offset="0.322567" stop-color="#8F2199"/>
<stop offset="0.459271" stop-color="#8F2199"/>
<stop offset="0.501782" stop-color="#F68CFF"/>
<stop offset="0.54776" stop-color="#8F2199"/>
<stop offset="0.695966" stop-color="#8F2199"/>
<stop offset="0.743545" stop-color="#F68CFF"/>
<stop offset="0.803014" stop-color="#6E1975"/>
</linearGradient>
</defs>
</svg>
